<svg width="32" height="32" viewBox="0 0 300 300" fill="none" xmlns="http://www.w3.org/2000/svg">
<path d="M56.0518 159.026C61.2085 170.158 68.3197 180.239 76.9062 188.794V188.795L76.9365 188.826V188.825C82.2574 194.117 88.1399 198.824 94.5098 202.869L84.5557 210.045C78.9242 206.143 73.6319 201.742 68.79 196.922C59.106 187.282 51.1361 175.937 45.3799 163.388L56.0518 159.026Z" fill="#ECECEC" stroke="black" stroke-width="2"/>
<path d="M118.458 185.654L102.868 196.891C97.3281 193.664 92.1411 189.895 87.3838 185.654H118.458Z" fill="#ECECEC" stroke="black" stroke-width="2"/>
<path d="M244.431 119.958C243.463 141.853 234.985 161.771 221.484 177.241H174.234C175.544 174.168 176.271 170.791 176.271 167.252C176.271 152.966 164.629 141.383 150.29 141.383H150.26C135.92 141.383 124.277 152.966 124.277 167.252C124.277 170.797 125.029 174.173 126.323 177.241H79.0645C65.5639 161.742 57.0863 141.824 56.1182 119.958H244.431Z" fill="#ECECEC" stroke="black" stroke-width="2"/>
<path d="M106.865 21.9495C95.6717 27.0885 85.5358 34.178 76.9365 42.7385C68.3364 51.3 61.2146 61.3919 56.0518 72.5374L45.3799 68.175C51.1362 55.6262 59.1061 44.2811 68.79 34.6409C78.4763 24.9983 89.876 17.0624 102.486 11.3313L106.865 21.9495Z" fill="#ECECEC" stroke="black" stroke-width="2"/>
<path d="M150.289 1C164.32 1 177.75 3.49698 190.192 8.07324L185.812 18.6924C174.734 14.6786 162.771 12.4883 150.289 12.4883C137.807 12.4883 125.844 14.6784 114.766 18.6924L110.385 8.07227C122.8 3.49656 136.258 1 150.289 1Z" fill="#ECECEC" stroke="black" stroke-width="2"/>
<path d="M198.122 11.3323C210.733 17.0634 222.133 24.9982 231.819 34.6409C241.503 44.2811 249.472 55.6263 255.229 68.175L244.556 72.5374C239.393 61.3922 232.273 51.2998 223.673 42.7385C215.073 34.1777 204.936 27.0895 193.742 21.9504L198.122 11.3323Z" fill="#ECECEC" stroke="black" stroke-width="2"/>
<path d="M221.516 54.2925C235.016 69.7919 243.494 89.7102 244.462 111.576H56.1494C57.1173 89.6808 65.5954 69.7627 79.0957 54.2925H221.516Z" fill="#ECECEC" stroke="black" stroke-width="2"/>
<path d="M213.172 185.654C207.831 190.43 201.917 194.587 195.566 198.051L180.828 185.654H213.172Z" fill="#ECECEC" stroke="black" stroke-width="2"/>
<path d="M150.289 21.9556C174.477 21.9556 196.523 31.0232 213.197 45.9087H87.3809C104.055 31.0231 126.101 21.9557 150.289 21.9556Z" fill="#ECECEC" stroke="black" stroke-width="2"/>
<path d="M52.7783 80.407C48.7476 91.4341 46.5498 103.343 46.5498 115.767C46.5498 128.191 48.7479 140.099 52.7783 151.126L42.1035 155.489C37.5072 143.131 35 129.734 35 115.767C35 101.8 37.5082 88.431 42.1055 76.0447L52.7783 80.407Z" fill="#ECECEC" stroke="black" stroke-width="2"/>
<path d="M255.229 163.388C249.473 175.937 241.505 187.281 231.821 196.921C225.995 202.693 219.544 207.869 212.583 212.32L203.346 204.553C210.775 200.161 217.596 194.876 223.674 188.826C232.274 180.264 239.394 170.171 244.557 159.026L255.229 163.388Z" fill="#ECECEC" stroke="black" stroke-width="2"/>
<path d="M258.477 76.0438C263.073 88.4027 265.583 101.8 265.583 115.767C265.583 129.734 263.074 143.103 258.477 155.489L247.803 151.126C251.833 140.099 254.033 128.192 254.033 115.767C254.033 103.343 251.834 91.4342 247.803 80.407L258.477 76.0438Z" fill="#ECECEC" stroke="black" stroke-width="2"/>
<path d="M140.973 192.895C145.865 188.895 152.453 188.719 157.501 192.413L157.984 192.782L227.215 248.001C232.867 252.509 239.922 254.963 247.164 254.964H253.937C255.59 255.18 256.841 256.569 256.841 258.269C256.841 260.121 255.357 261.604 253.485 261.604H47.9424C46.0709 261.604 44.587 260.121 44.5869 258.269C44.5869 256.417 46.0708 254.933 47.9424 254.933H53.8701C61.2675 254.933 68.4487 252.386 74.1641 247.691L74.1631 247.69L140.973 192.895ZM154.403 241.853C152.162 241.853 150.318 243.682 150.318 245.924C150.318 248.167 152.162 249.996 154.403 249.996C156.645 249.996 158.488 248.167 158.488 245.924C158.488 243.682 156.645 241.853 154.403 241.853ZM114.541 233.483C110.817 233.483 107.795 236.486 107.795 240.204C107.795 243.922 110.817 246.924 114.541 246.924C118.265 246.924 121.288 243.922 121.288 240.204C121.288 236.486 118.265 233.483 114.541 233.483ZM175.303 225.143C172.244 225.143 169.736 227.635 169.736 230.69C169.737 233.741 172.21 236.236 175.303 236.236C178.361 236.236 180.87 233.745 180.87 230.69C180.87 227.635 178.361 225.143 175.303 225.143ZM133.475 222.102C131.505 222.102 129.873 223.72 129.873 225.692C129.873 227.656 131.467 229.281 133.475 229.281C135.444 229.281 137.075 227.663 137.075 225.692C137.075 223.721 135.444 222.102 133.475 222.102ZM161.36 210.059C159.391 210.059 157.759 211.677 157.759 213.648C157.759 215.612 159.353 217.238 161.36 217.238C163.33 217.238 164.961 215.62 164.961 213.648C164.961 211.677 163.33 210.059 161.36 210.059ZM139.796 201.598C137.221 201.598 135.105 203.698 135.105 206.272C135.106 208.84 137.186 210.945 139.796 210.945C142.37 210.945 144.485 208.846 144.485 206.272C144.485 203.698 142.37 201.599 139.796 201.598Z" fill="#ECECEC" stroke="black" stroke-width="2"/>
<path d="M89.7109 291.155C91.2717 291.155 92.6478 291.643 93.6133 292.385C94.5776 293.127 95.0926 294.081 95.0928 295.062C95.0928 296.042 94.5777 296.998 93.6133 297.74C92.6478 298.482 91.2716 298.97 89.7109 298.97C88.1501 298.97 86.7731 298.482 85.8076 297.74C84.8434 296.998 84.3291 296.042 84.3291 295.062C84.3292 294.081 84.8435 293.127 85.8076 292.385C86.7731 291.643 88.1501 291.155 89.7109 291.155Z" fill="#ECECEC" stroke="black" stroke-width="2"/>
<path d="M110.7 271.675C112.763 271.675 114.593 272.318 115.887 273.312C117.18 274.304 117.896 275.606 117.896 276.968C117.896 278.33 117.179 279.632 115.887 280.624C114.593 281.617 112.762 282.26 110.7 282.26C108.638 282.26 106.808 281.617 105.514 280.624C104.221 279.632 103.504 278.33 103.504 276.968C103.504 275.606 104.221 274.304 105.514 273.312C106.808 272.318 108.638 271.675 110.7 271.675Z" fill="#ECECEC" stroke="black" stroke-width="2"/>
<path d="M70.5352 273.391C73.5126 273.391 75.4627 275.217 75.4629 276.967C75.4629 278.717 73.5128 280.544 70.5352 280.544C67.5576 280.544 65.6074 278.717 65.6074 276.967C65.6077 275.217 67.5578 273.391 70.5352 273.391Z" fill="#ECECEC" stroke="black" stroke-width="2"/>
<path d="M139.793 271.675C141.855 271.675 143.686 272.318 144.979 273.312C146.272 274.304 146.989 275.606 146.989 276.968C146.989 278.33 146.272 279.632 144.979 280.624C143.686 281.617 141.855 282.26 139.793 282.26C137.731 282.26 135.9 281.617 134.606 280.624C133.314 279.632 132.597 278.33 132.597 276.968C132.597 275.606 133.314 274.304 134.606 273.312C135.9 272.318 137.731 271.675 139.793 271.675Z" fill="#ECECEC" stroke="black" stroke-width="2"/>
<path d="M167.076 288.896C169.506 288.896 171.006 290.375 171.006 291.69C171.006 293.005 169.506 294.483 167.076 294.483C164.647 294.483 163.147 293.005 163.146 291.69C163.146 290.375 164.647 288.897 167.076 288.896Z" fill="#ECECEC" stroke="black" stroke-width="2"/>
<path d="M199.044 275.679C200.563 275.679 201.902 276.154 202.84 276.875C203.777 277.595 204.274 278.52 204.274 279.466C204.274 280.413 203.777 281.338 202.84 282.058C201.902 282.779 200.563 283.254 199.044 283.254C197.525 283.254 196.186 282.779 195.248 282.058C194.311 281.338 193.813 280.413 193.813 279.466C193.814 278.52 194.311 277.595 195.248 276.875C196.186 276.154 197.525 275.679 199.044 275.679Z" fill="#ECECEC" stroke="black" stroke-width="2"/>
<path d="M230.288 291.185C233.532 291.185 235.67 293.162 235.67 295.092C235.67 297.022 233.533 299 230.288 299C227.043 299 224.906 297.022 224.906 295.092C224.906 294.114 225.423 293.158 226.391 292.415C227.359 291.672 228.736 291.185 230.288 291.185Z" fill="#ECECEC" stroke="black" stroke-width="2"/>
<path d="M239.846 273.361C241.29 273.361 242.569 273.817 243.466 274.508C244.363 275.199 244.834 276.079 244.834 276.967C244.834 277.855 244.363 278.736 243.466 279.427C242.569 280.118 241.29 280.573 239.846 280.573C238.401 280.573 237.123 280.118 236.226 279.427C235.328 278.736 234.857 277.855 234.857 276.967C234.857 276.08 235.328 275.199 236.226 274.508C237.123 273.817 238.401 273.361 239.846 273.361Z" fill="#ECECEC" stroke="black" stroke-width="2"/>
<path d="M150.289 151.542C159.011 151.542 166.074 158.579 166.074 167.252C166.074 175.924 159.011 182.961 150.289 182.961C141.567 182.961 134.503 175.924 134.503 167.252C134.503 158.579 141.567 151.542 150.289 151.542Z" fill="#ECECEC" stroke="black" stroke-width="2"/>
</svg>
